<svg width="34" height="30" viewBox="0 0 34 30" fill="none" xmlns="http://www.w3.org/2000/svg">
<path d="M31.8754 12.8557H31.9089C32.4853 12.8557 33.0059 13.0957 33.3777 13.4832C33.762 13.8594 34 14.3844 34 14.9656V15.0006V14.9994V15.0331C34 15.6143 33.762 16.1393 33.3777 16.5143C33.0046 16.9018 32.484 17.1418 31.9076 17.1418H31.8729H31.8741H31.625L29.7148 28.2276C29.634 28.7258 29.3752 29.1771 28.9872 29.4963L28.9835 29.4988C28.624 29.81 28.153 30 27.6386 30H6.35896C5.84455 30 5.37351 29.81 5.01156 29.4963L5.01404 29.4988C4.62735 29.182 4.36825 28.7342 4.28517 28.2388L4.28393 28.2263L2.37377 17.1405H2.09115C1.51475 17.1405 0.994132 16.9005 0.622263 16.5131C0.425106 16.3208 0.268394 16.0904 0.161482 15.8357C0.0545693 15.581 -0.000350297 15.3072 1.68119e-06 15.0306V14.9631C1.68119e-06 14.3819 0.237998 13.8569 0.622263 13.4819C0.995372 13.0945 1.51599 12.8545 2.09239 12.8545H2.12709H2.12585L31.8754 12.8557ZM8.04725 26.2477C8.18633 26.2381 8.32199 26.1999 8.44586 26.1354C8.56973 26.0709 8.67917 25.9815 8.76744 25.8727L8.76868 25.8714C8.86285 25.766 8.93437 25.642 8.97874 25.5074C9.02311 25.3727 9.03937 25.2303 9.02651 25.089V25.0927L8.49473 18.128C8.48524 17.9877 8.44735 17.851 8.38339 17.726C8.31943 17.6011 8.23077 17.4908 8.12286 17.4018L8.12162 17.4005C8.01706 17.3056 7.89414 17.2334 7.7606 17.1887C7.62706 17.144 7.48579 17.1276 7.34566 17.1405H7.34938C7.21029 17.1501 7.07463 17.1883 6.95077 17.2528C6.8269 17.3173 6.71746 17.4067 6.62919 17.5155L6.62795 17.5168C6.53378 17.6222 6.46226 17.7462 6.41789 17.8808C6.37352 18.0155 6.35726 18.1579 6.37012 18.2992V18.2955L6.90189 25.2602C6.91958 25.5301 7.04152 25.7824 7.24153 25.9627L7.24277 25.9639C7.43414 26.1471 7.68797 26.2491 7.9518 26.2489H7.96544H7.9642L8.04725 26.2477ZM14.8711 25.1777V18.203C14.8715 18.0641 14.8437 17.9267 14.7896 17.799C14.7355 17.6713 14.656 17.5562 14.5562 17.4605C14.461 17.3599 14.3466 17.2799 14.2198 17.2253C14.093 17.1708 13.9565 17.1428 13.8187 17.143H13.7988C13.6611 17.1426 13.5248 17.1706 13.3982 17.2252C13.2716 17.2798 13.1574 17.3599 13.0625 17.4605C12.9628 17.5565 12.8834 17.6719 12.8293 17.7997C12.7752 17.9276 12.7474 18.0652 12.7477 18.2042V25.189C12.7477 25.4814 12.8679 25.7452 13.0625 25.9314C13.1577 26.032 13.2721 26.112 13.3989 26.1666C13.5257 26.2212 13.6622 26.2492 13.8001 26.2489H13.8199C13.9576 26.2493 14.0939 26.2214 14.2205 26.1668C14.3471 26.1122 14.4614 26.0321 14.5562 25.9314C14.6573 25.8355 14.7379 25.7196 14.7929 25.5911C14.8479 25.4625 14.8762 25.324 14.876 25.184V25.1765L14.8711 25.1777ZM21.2461 25.1777V18.203C21.2465 18.0641 21.2188 17.9267 21.1647 17.799C21.1105 17.6713 21.0311 17.5562 20.9313 17.4605C20.8361 17.3599 20.7217 17.2799 20.5949 17.2253C20.4681 17.1708 20.3316 17.1428 20.1937 17.143H20.1739C20.0362 17.1426 19.8999 17.1706 19.7733 17.2252C19.6467 17.2798 19.5324 17.3599 19.4376 17.4605C19.3379 17.5565 19.2585 17.6719 19.2044 17.7997C19.1502 17.9276 19.1225 18.0652 19.1228 18.2042V25.189C19.1228 25.4814 19.243 25.7452 19.4376 25.9314C19.5328 26.032 19.6472 26.112 19.774 26.1666C19.9008 26.2212 20.0373 26.2492 20.1751 26.2489H20.195C20.3327 26.2493 20.469 26.2214 20.5956 26.1668C20.7222 26.1122 20.8364 26.0321 20.9313 25.9314C21.0324 25.8355 21.1129 25.7196 21.1679 25.5911C21.2229 25.4625 21.2512 25.324 21.2511 25.184V25.1765L21.2461 25.1777ZM27.0894 25.2602L27.6212 18.2955C27.6332 18.1546 27.6165 18.0128 27.5722 17.8787C27.5278 17.7445 27.4568 17.621 27.3634 17.5155L27.3646 17.5168C27.2766 17.4078 27.1674 17.3181 27.0438 17.2532C26.9201 17.1883 26.7847 17.1495 26.6457 17.1393H26.642C26.5023 17.1272 26.3616 17.144 26.2286 17.1887C26.0956 17.2334 25.973 17.3051 25.8685 17.3993L25.8697 17.398C25.7617 17.4868 25.6727 17.5969 25.6084 17.7216C25.544 17.8462 25.5055 17.9828 25.4954 18.123V18.1267L24.9636 25.0915C24.9516 25.2323 24.9683 25.3742 25.0126 25.5083C25.0569 25.6424 25.128 25.766 25.2214 25.8714L25.2202 25.8702C25.3082 25.9791 25.4174 26.0688 25.541 26.1337C25.6646 26.1986 25.8001 26.2374 25.9391 26.2477H26.0383C26.3025 26.2477 26.5566 26.1457 26.7486 25.9627C26.9511 25.7826 27.0753 25.5294 27.0944 25.2577V25.2539L27.0894 25.2602ZM7.90346 4.88605L6.3602 11.7833H4.16866L5.84455 4.40107C6.0466 3.41986 6.57589 2.58864 7.30971 2.00742L7.31839 2.00117C8.05687 1.39729 8.97936 1.06882 9.93015 1.07121H9.97725H9.97477H12.7464V1.06121C12.7464 0.768719 12.8667 0.50498 13.0613 0.318738C13.1565 0.217827 13.2711 0.137526 13.3982 0.0827285C13.5252 0.0279307 13.6619 -0.000216752 13.8001 1.25676e-06H20.1987C20.4888 1.25676e-06 20.7503 0.121246 20.935 0.317488C21.0348 0.413444 21.1141 0.528859 21.1682 0.656714C21.2224 0.784568 21.2501 0.92219 21.2498 1.06121V1.07121H24.0674C25.0603 1.07121 25.9713 1.42119 26.6853 2.00617L26.6779 1.99992C27.4298 2.59167 27.9501 3.43242 28.1468 4.37357L28.1517 4.39982L29.8276 11.782H27.6361L26.0928 4.8848C25.9806 4.41148 25.7166 3.98877 25.3416 3.68235L25.3379 3.6786C24.9731 3.37479 24.5145 3.209 24.0413 3.20987H21.2461V3.21987C21.2465 3.35872 21.2188 3.49619 21.1647 3.62386C21.1105 3.75153 21.0311 3.86671 20.9313 3.96234C20.8361 4.06293 20.7217 4.14294 20.5949 4.19752C20.4681 4.2521 20.3316 4.28011 20.1937 4.27982H13.8001C13.6624 4.28023 13.526 4.25228 13.3994 4.19768C13.2728 4.14309 13.1586 4.06301 13.0638 3.96234C12.964 3.86638 12.8847 3.75097 12.8305 3.62311C12.7764 3.49526 12.7486 3.35763 12.7489 3.21862V3.20862H9.9537C9.47942 3.20808 9.01989 3.37477 8.65464 3.67985L8.65836 3.67735C8.28615 3.98132 8.02349 4.40035 7.9109 4.8698L7.90842 4.8848L7.90346 4.88605Z" fill="#67ADDE"/>
</svg>
