<svg width="325" height="87" viewBox="0 0 325 87" fill="none" xmlns="http://www.w3.org/2000/svg">
<path d="M76.6276 60.5851C82.9155 42.5926 89.1497 24.7534 95.4792 6.63911C73.3815 14.9475 51.5158 23.1687 29.65 31.39C29.6431 31.4736 29.6362 31.5555 29.6276 31.6391C30.3352 32.0518 31.036 32.4767 31.7524 32.8755C37.0523 35.8185 42.3643 38.7406 47.6503 41.7097C48.3407 42.0981 48.8217 42.0563 49.436 41.6C53.5697 38.5403 57.7241 35.5068 61.8734 32.468C67.0712 28.6612 72.2638 24.844 77.4824 21.0651C78.0447 20.6576 78.7351 20.3024 79.4064 20.2048C80.6142 20.0272 81.5088 20.6681 81.9154 21.7477C82.296 22.7543 81.9586 23.8949 81.0139 24.5967C78.4392 26.5105 75.8559 28.4104 73.2674 30.3051C66.0382 35.5938 58.8055 40.8773 51.5746 46.1626C51.2476 46.4011 50.9015 46.6153 50.5936 46.8766C49.4914 47.8047 48.3407 47.7595 47.1433 47.096C42.9768 44.7868 38.8068 42.4829 34.6437 40.1686C30.6069 37.9239 26.5788 35.6635 22.5403 33.4223C21.4796 32.8337 20.8826 32.0222 21.0193 30.7509C21.1456 29.572 21.9191 28.9764 22.9123 28.6037C33.7422 24.5323 44.5773 20.4748 55.4072 16.4033C65.4551 12.6261 75.4977 8.83854 85.5438 5.0579C89.783 3.46275 94.0309 1.88676 98.2667 0.282902C99.3827 -0.138524 100.412 -0.168128 101.303 0.74438C102.167 1.62728 102.122 2.63731 101.738 3.73267C97.1039 16.9484 92.4788 30.1693 87.8589 43.3902C85.4296 50.3437 83.0107 57.3007 80.5882 64.256C80.5208 64.4476 80.4619 64.6426 80.3927 64.8324C79.6937 66.7637 78.1451 67.3627 76.4044 66.3196C73.7293 64.7157 71.0785 63.0718 68.4156 61.4471C64.6176 59.1327 60.83 56.7992 57.013 54.5162C54.8743 53.2362 52.0176 54.7339 51.8843 57.2154C51.7892 58.9812 51.8653 60.754 51.8705 62.525C51.8705 62.6312 51.9293 62.7357 52.0055 62.9865C52.3809 62.7131 52.7062 62.5041 53.0004 62.2568C54.2168 61.2346 55.4193 60.195 56.634 59.1693C57.7362 58.2376 59.2104 58.2968 60.1465 59.2982C61.0964 60.3152 61.0791 61.7814 59.9527 62.7862C57.9265 64.5938 55.8294 66.3196 53.7583 68.0784C52.855 68.8447 51.9484 69.6074 51.04 70.3684C50.2302 71.0476 49.3166 71.1869 48.3736 70.748C47.4219 70.3057 46.972 69.496 46.9738 68.4372C46.9755 64.519 46.9392 60.6007 46.9893 56.6825C47.0343 53.1283 50.5953 49.4835 54.2877 49.0951C56.2516 48.8879 58.0563 49.2989 59.7468 50.335C65.0657 53.5967 70.3968 56.8358 75.7244 60.0801C75.9649 60.2263 76.2158 60.3535 76.6293 60.5833L76.6276 60.5851Z" fill="white"/>
<path d="M198.001 19.9775C198.001 15.8834 197.999 11.7893 198.001 7.69517C198.001 6.26456 198.268 6.01523 199.819 6.01179C202.365 6.00663 204.912 5.98084 207.456 6.02727C208.293 6.04274 209.153 6.17514 209.959 6.39008C212.25 7.00394 213.601 8.69248 213.659 10.9467C213.692 12.1779 213.672 13.409 213.666 14.6402C213.661 16.1172 213.277 17.4791 212.221 18.6071C211.883 18.9682 211.915 19.2312 212.261 19.5545C213.452 20.667 213.927 22.0908 213.97 23.6073C214.023 25.4334 214.019 27.275 213.843 29.0925C213.563 31.971 211.843 33.6389 208.819 33.8211C205.651 34.012 202.464 33.981 199.286 34C198.323 34.0051 198.006 33.6045 198.005 32.6037C197.997 28.3944 198.001 24.1868 198.001 19.9775ZM202.926 25.9166C202.926 27.2062 202.932 28.4941 202.922 29.7838C202.919 30.2515 203.061 30.5782 203.632 30.561C204.843 30.5249 206.053 30.4991 207.261 30.4423C208.224 30.3959 208.841 29.8474 208.889 28.9928C208.996 27.0549 209.02 25.1102 208.985 23.1689C208.967 22.1681 208.239 21.6041 207.227 21.501C206.086 21.384 204.934 21.384 203.785 21.3239C203.166 21.2912 202.908 21.5474 202.919 22.1355C202.941 23.3958 202.926 24.6562 202.926 25.9166ZM202.924 13.569C202.924 14.6282 202.924 15.6891 202.924 16.7483C202.924 16.805 202.93 16.8635 202.926 16.9202C202.904 17.4034 203.103 17.6854 203.658 17.6768C204.568 17.6631 205.481 17.7129 206.384 17.6424C207.791 17.5341 208.621 16.9082 208.761 15.579C208.918 14.1089 208.892 12.6078 208.785 11.129C208.714 10.1403 207.982 9.64336 206.912 9.6124C205.882 9.58317 204.85 9.621 203.82 9.59521C203.148 9.57802 202.901 9.86001 202.917 10.4739C202.942 11.5038 202.924 12.5355 202.922 13.5672L202.924 13.569Z" fill="white"/>
<path d="M283.996 20.0418C283.996 24.1654 283.998 28.2873 283.996 32.4109C283.996 33.6823 283.696 33.9727 282.391 33.9899C281.743 33.9985 281.096 34.0122 280.45 33.9779C279.534 33.928 279.137 33.5243 279.072 32.6257C279.049 32.313 279.061 31.9968 279.061 31.6807C279.061 24.8372 279.061 17.9937 279.061 11.1519C279.061 9.97327 279.034 9.95094 277.826 9.9475C276.885 9.94407 275.941 9.98358 275.004 9.93548C274.208 9.89596 273.907 10.1691 273.923 10.9681C273.965 13.1141 273.937 15.2635 273.937 17.4095C273.937 22.363 273.938 27.3165 273.937 32.27C273.937 33.7064 273.651 33.983 272.191 33.9916C271.604 33.9951 271.015 34.0088 270.427 33.9796C269.351 33.9263 269.013 33.5947 269.008 32.5415C268.994 30.2219 269.003 27.9024 269.001 25.5846C269.001 19.6569 269.001 13.7309 269.001 7.80322C269.001 6.25343 269.257 6.0043 270.842 6.00258C274.635 5.99914 278.427 5.99914 282.221 6.00258C283.762 6.0043 284 6.24484 284 7.75683C284 11.8512 284 15.9456 284 20.0401L283.996 20.0418Z" fill="white"/>
<path d="M141.999 20.0092C141.999 24.1306 142.001 28.2537 141.999 32.375C141.999 33.7082 141.758 33.9779 140.565 33.9933C140.081 34.0002 139.597 34.0054 139.113 33.9899C138.116 33.959 137.839 33.6532 137.838 32.5434C137.832 28.3069 137.835 24.0705 137.835 19.834C137.835 16.886 137.818 13.9363 137.845 10.9883C137.853 10.2152 137.639 9.89736 136.927 9.93859C136.037 9.99185 135.144 9.94718 134.253 9.95234C133.317 9.95749 133.28 9.997 133.28 11.0862C133.279 18.013 133.28 24.9415 133.279 31.8682C133.279 32.1826 133.28 32.4987 133.269 32.8131C133.242 33.526 132.913 33.9469 132.276 33.971C131.539 34.0002 130.799 33.9933 130.06 33.9658C129.386 33.9418 129.05 33.5037 129.018 32.7581C129.005 32.4729 129.001 32.186 129.001 31.8992C129.001 23.9708 129.001 16.0408 129.001 8.11241C129.001 7.88393 128.996 7.65372 129.008 7.42523C129.064 6.33605 129.349 6.0148 130.339 6.00964C132.886 5.99933 135.433 6.00449 137.981 6.00449C138.899 6.00449 139.816 5.99074 140.732 6.01136C141.723 6.03369 141.996 6.34808 141.996 7.46818C142.001 11.648 141.998 15.826 141.998 20.0058L141.999 20.0092Z" fill="white"/>
<path d="M323.987 19.8487C323.987 22.7342 324.014 25.6179 323.978 28.5034C323.954 30.3765 323.483 32.1085 322.025 33.3637C321.571 33.7548 321.051 34.1226 320.501 34.3155C318.018 35.1833 315.49 35.2118 312.978 34.4815C311.118 33.9405 309.929 32.6031 309.456 30.6818C309.197 29.6265 309.044 28.5141 309.035 27.4249C308.992 22.2806 308.987 17.1346 309.03 11.9903C309.047 9.94049 309.3 7.91029 311.05 6.54253C311.543 6.15685 312.107 5.80687 312.691 5.61939C315.246 4.79802 317.831 4.79266 320.387 5.60867C322.586 6.31041 323.935 8.29955 323.976 10.9279C324.023 13.9009 323.987 16.8757 323.987 19.8487ZM319.476 20.1201C319.476 17.7988 319.488 15.4776 319.469 13.1563C319.462 12.385 319.409 11.6118 319.326 10.8458C319.191 9.58516 318.787 9.1227 317.563 8.92271C316.951 8.82272 316.303 8.78522 315.693 8.87272C314.259 9.07627 313.736 9.73694 313.662 11.2547C313.65 11.4922 313.65 11.7314 313.65 11.9689C313.65 17.3542 313.644 22.7413 313.661 28.1266C313.662 28.7123 313.702 29.3408 313.91 29.8711C314.077 30.2961 314.469 30.8229 314.854 30.9246C317.889 31.7282 319.497 31.2085 319.476 27.8856C319.476 27.6481 319.476 27.4088 319.476 27.1714C319.476 24.8197 319.476 22.4699 319.476 20.1183V20.1201Z" fill="white"/>
<path d="M225.318 17.6816C226.034 16.1715 226.758 14.6665 227.467 13.1511C228.418 11.1187 229.375 9.09141 230.294 7.04179C230.623 6.30647 231.092 5.96801 231.822 6.00237C232.44 6.03158 233.06 5.98519 233.677 6.01955C234.702 6.07625 235.065 6.7669 234.6 7.75993C232.874 11.4417 231.154 15.1252 229.398 18.788C229.135 19.3395 229.142 19.7605 229.388 20.2999C231.182 24.2325 232.955 28.1771 234.73 32.1218C235.293 33.3708 234.985 33.9807 233.725 33.9824C230.439 33.9876 231.107 34.3604 229.75 31.395C228.42 28.4847 227.123 25.5554 225.808 22.6382C225.677 22.3461 225.52 22.0661 225.376 21.7809C225.308 21.7946 225.239 21.8101 225.171 21.8238C225.138 22.1674 225.079 22.511 225.078 22.8546C225.07 26.033 225.076 29.2097 225.072 32.3881C225.072 33.711 224.824 33.9773 223.609 33.9927C223.172 33.9979 222.732 34.003 222.294 33.9893C221.284 33.9566 221.007 33.6525 221.004 32.541C220.998 29.421 221.001 26.301 221.001 23.1794C221.001 17.9977 221.001 12.8161 221.001 7.63451C221.001 6.291 221.241 6.02299 222.441 6.00753C222.905 6.00065 223.37 5.99722 223.834 6.00753C224.788 6.02986 225.064 6.33395 225.067 7.41632C225.075 10.4796 225.07 13.5429 225.07 16.6061C225.07 16.9411 225.07 17.2744 225.07 17.6095C225.15 17.6335 225.229 17.6559 225.31 17.6799L225.318 17.6816Z" fill="white"/>
<path d="M244.538 6C247.135 6 247.109 6.00515 247.663 8.52245C249.361 16.2427 251.076 23.9613 252.796 31.6781C253.255 33.7349 253.063 33.9858 250.929 33.9944C248.264 34.0047 248.32 34.1009 247.761 31.4788C247.564 30.5544 247.299 29.6437 247.114 28.7175C246.983 28.0611 246.633 27.8137 245.965 27.836C244.921 27.8704 243.874 27.8687 242.829 27.836C242.195 27.8154 241.871 28.0508 241.747 28.6728C241.477 30.02 241.175 31.362 240.86 32.7005C240.616 33.7349 240.307 33.9669 239.23 33.9892C238.62 34.0013 238.01 34.0064 237.4 33.9875C236.202 33.9514 235.822 33.4978 236.073 32.3431C236.689 29.5165 237.325 26.6934 237.961 23.8719C239.19 18.4232 240.422 12.9745 241.658 7.52756C241.981 6.10825 242.115 6.00859 243.581 6.00172C243.9 6.00172 244.22 6.00172 244.539 6.00172L244.538 6ZM244.559 15.4162C244.494 15.4248 244.43 15.4317 244.367 15.4403C243.759 18.26 243.15 21.0797 242.54 23.8977C242.437 24.3685 242.687 24.5232 243.108 24.5249C243.978 24.5283 244.848 24.518 245.718 24.5318C246.272 24.5403 246.436 24.3084 246.312 23.786C246.153 23.1193 246.042 22.4406 245.901 21.7687C245.456 19.6501 245.008 17.5332 244.56 15.4145L244.559 15.4162Z" fill="white"/>
<path d="M290.004 20.0112C290.004 15.9774 290.001 11.9454 290.004 7.91157C290.006 6.26232 290.26 6.0115 291.889 6.00978C294.274 6.00806 296.659 5.98401 299.044 6.01837C300.589 6.0407 302.071 6.34307 303.329 7.33433C304.313 8.10742 304.91 9.15538 304.936 10.3562C304.991 12.8662 305.097 15.4053 304.796 17.8861C304.415 21.0557 302.33 22.638 299.089 22.6775C297.997 22.6912 296.904 22.7136 295.813 22.6706C295.066 22.6414 294.802 22.9163 294.811 23.6636C294.84 26.524 294.824 29.3844 294.821 32.2449C294.819 33.6983 294.531 33.9783 293.043 33.9955C292.584 34.0006 292.123 34.0023 291.664 33.9955C290.349 33.9697 290.025 33.6639 290.009 32.3703C289.992 30.9684 290.004 29.5665 290.004 28.1664C290.004 25.4486 290.004 22.7325 290.004 20.0146V20.0112ZM294.823 14.445C294.823 15.6441 294.819 16.845 294.823 18.0441C294.826 19.1917 294.85 19.2141 295.96 19.2209C296.476 19.2244 296.994 19.2261 297.51 19.2209C299.241 19.2021 300.125 18.5424 300.261 16.8175C300.402 15.0308 300.375 13.2201 300.276 11.4265C300.209 10.1793 299.46 9.61579 298.223 9.60033C297.391 9.59002 296.557 9.62095 295.727 9.59174C295.059 9.56769 294.802 9.84257 294.816 10.504C294.843 11.8182 294.824 13.1325 294.823 14.445Z" fill="white"/>
<path d="M182.005 19.9082C182.005 15.8422 182.002 11.778 182.005 7.71205C182.005 6.28226 182.282 6.00559 183.706 6.00387C186.978 5.99871 190.249 5.99871 193.519 6.00387C194.702 6.00559 194.977 6.29257 194.994 7.47146C195.028 9.89454 194.987 9.93578 192.612 9.93578C190.963 9.93578 189.312 9.95469 187.662 9.92891C186.998 9.9186 186.754 10.1867 186.762 10.8466C186.786 12.7077 186.786 14.5688 186.762 16.4283C186.754 17.0847 186.989 17.3597 187.659 17.3476C189.108 17.3202 190.56 17.3287 192.011 17.3476C193.06 17.3614 193.384 17.6982 193.423 18.7379C193.524 21.3517 193.423 21.4566 190.85 21.4583C189.798 21.4583 188.745 21.4789 187.693 21.4514C187.056 21.4342 186.756 21.6456 186.762 22.3347C186.786 24.6255 186.783 26.9145 186.764 29.2053C186.759 29.8325 187.013 30.0731 187.63 30.0662C189.564 30.049 191.499 30.0525 193.432 30.0662C194.707 30.0748 194.984 30.3652 194.994 31.6335C195.011 33.9569 194.972 33.9981 192.682 33.9981C189.723 33.9981 186.766 34.0033 183.807 33.9964C182.296 33.993 182.005 33.7043 182.004 32.1903C181.997 28.0968 182.002 24.0034 182.002 19.9082H182.005Z" fill="white"/>
<path d="M154.651 21.1059C155.22 18.333 155.792 15.5619 156.358 12.7891C156.732 10.9557 157.123 9.12587 157.461 7.2855C157.629 6.37234 158.117 5.97547 159 6.00181C159.542 6.01937 160.086 5.99127 160.63 6.00883C161.821 6.04395 162.181 6.50931 161.919 7.67886C161.008 11.7284 160.097 15.7762 159.174 19.8222C158.42 23.1271 157.686 26.4373 156.869 29.7265C156.502 31.2051 155.948 32.6696 154.742 33.6601C152.714 35.3248 150.399 35.2212 148.06 34.517C147.806 34.4415 147.592 34.0394 147.474 33.7426C147.372 33.488 147.429 33.1666 147.427 32.8733C147.424 31.256 147.551 31.1383 149.145 31.2595C150.969 31.3982 152.046 30.1567 151.638 28.2707C150.557 23.2711 149.43 18.2821 148.323 13.2895C147.906 11.407 147.487 9.52275 147.074 7.63847C146.828 6.5181 147.184 6.02639 148.318 6.0141C151.839 5.97722 151.387 5.80337 152.032 8.97134C152.813 12.8101 153.577 16.6524 154.349 20.493C154.388 20.6914 154.447 20.8863 154.496 21.0813C154.548 21.0901 154.599 21.0988 154.649 21.1059H154.651Z" fill="white"/>
<path d="M34.9955 58.3328C35.056 59.2768 34.5008 59.8965 33.7621 60.4171C31.0203 62.353 28.2803 64.2922 25.5368 66.2264C18.4324 71.235 11.3314 76.2487 4.20623 81.2301C3.64576 81.621 2.92615 81.9266 2.25152 81.9914C1.24476 82.087 0.41271 81.3717 0.116909 80.4414C-0.20138 79.4376 0.134207 78.4082 1.07523 77.7288C2.70301 76.5526 4.35153 75.4071 5.99314 74.2497C14.3673 68.3517 22.7431 62.4571 31.1103 56.554C31.9371 55.9701 32.809 55.8097 33.7068 56.2569C34.5267 56.6649 35.0387 57.3358 34.9903 58.3362L34.9955 58.3328Z" fill="white"/>
<path d="M167.82 63.4436C168.511 63.1953 169.006 63.0569 169.464 62.8295C169.624 62.7499 169.808 62.441 169.789 62.259C169.507 59.2892 170.478 56.6017 171.321 53.8877C171.534 53.2016 171.791 52.5307 172.053 51.8635C172.422 50.9178 173.187 50.715 173.873 51.4238C174.019 51.5755 174.038 51.9981 173.978 52.2559C173.642 53.6603 173.261 55.0514 172.909 56.4501C172.867 56.615 172.903 56.8045 172.903 57.1153C173.239 56.994 173.496 56.8879 173.759 56.8121C174.395 56.6282 175.026 56.3951 175.674 56.2928C177.482 56.0066 178.343 57.0964 177.874 59.0504C177.47 60.7334 176.396 61.8952 175.182 62.8636C174.503 63.4057 173.682 63.7734 172.878 64.069C172.042 64.3779 171.176 64.3344 170.508 63.7354C169.801 64.0747 169.174 64.4443 168.505 64.6812C167.76 64.9465 167.419 65.4317 167.282 66.2865C166.876 68.8147 166.302 71.3032 165.044 73.5036C164.022 75.2927 162.698 76.6687 160.662 76.9606C158.29 77.2979 156.649 75.433 157.065 72.8213C157.572 69.6335 159.553 67.7212 161.887 66.1709C162.861 65.5246 163.961 65.1114 164.987 64.5542C165.274 64.3988 165.642 64.1562 165.732 63.8662C166.065 62.7727 166.299 61.6412 166.541 60.6443C165.996 61.1712 165.405 61.7359 164.819 62.3102C163.721 63.3886 162.478 64.1505 160.981 64.2093C159.029 64.2851 157.829 62.7537 158.073 60.6045C158.25 59.0428 158.874 57.699 159.777 56.5297C161.952 53.7095 164.664 51.9034 168.036 51.3916C168.636 51.3007 169.028 51.4011 169.183 52.1365C169.308 52.7335 169.193 52.9836 168.609 53.0784C166.044 53.4992 163.872 54.7557 162.255 57.0149C161.827 57.6119 161.445 58.3813 161.373 59.111C161.315 59.691 161.631 60.4699 162.016 60.9096C162.48 61.4403 163.143 61.1484 163.667 60.7428C165.475 59.3422 166.835 57.4735 168.108 55.5214C168.37 55.1196 168.524 54.6913 169.097 55.0381C169.617 55.3546 170.001 55.6294 169.755 56.4198C169.16 58.3302 168.621 60.2595 168.067 62.187C167.974 62.5111 167.933 62.8523 167.816 63.4474L167.82 63.4436ZM165.103 66.2599C163.049 67.3213 161.179 68.5911 160.165 70.9298C159.821 71.724 159.807 72.5408 160.481 73.17C161.002 73.659 161.78 73.5301 162.494 72.8024C164.195 71.0644 164.776 68.7522 165.103 66.2599ZM171.974 60.1648C172.099 61.4024 172.632 62.043 173.455 61.8648C174.299 61.6829 175.418 60.4566 175.502 59.528C175.528 59.2323 175.335 58.6448 175.246 58.6467C174.412 58.6524 173.548 58.6372 172.762 58.8912C172.417 59.003 172.233 59.7232 171.975 60.1667L171.974 60.1648Z" fill="white"/>
<path d="M173.335 21.8031C173.335 25.353 173.339 28.903 173.333 32.4546C173.333 33.6763 173.026 33.9684 171.747 33.9908C171.181 34.0011 170.614 34.0062 170.046 33.9873C168.843 33.9461 168.501 33.6213 168.496 32.477C168.483 30.0439 168.492 27.6091 168.491 25.1761C168.491 20.48 168.491 15.7857 168.491 11.0897C168.491 9.98144 168.444 9.94536 167.27 9.93849C166.584 9.93333 165.896 9.95051 165.213 9.91959C164.443 9.88522 163.993 9.51236 164.002 8.72711C164.008 8.29754 163.995 7.86798 164.002 7.43841C164.018 6.36965 164.335 6.01741 165.426 6.01225C169.124 5.99507 172.823 5.99679 176.522 6.01225C177.637 6.01741 177.961 6.3559 177.986 7.40233C178.049 9.89209 178.001 9.93161 175.38 9.9402C173.083 9.9488 173.346 9.70652 173.339 11.9282C173.328 15.2204 173.337 18.5126 173.335 21.8065V21.8031Z" fill="white"/>
<path d="M272.875 59.6249C271.649 59.7819 270.602 59.8604 269.586 60.0869C269.324 60.1458 269.063 60.638 268.966 60.9805C268.575 62.3752 268.169 63.7735 267.925 65.2004C267.745 66.2616 267.101 65.9798 266.501 65.9263C265.854 65.8693 265.234 65.7194 265.466 64.8116C265.744 63.7218 266.055 62.6428 266.364 61.5619C266.451 61.2605 266.581 60.9733 266.758 60.5078C266.008 60.6826 265.43 60.8182 264.869 60.9484C264.681 62.7105 262.616 64.4709 260.916 64.3693C259.815 64.3033 259.214 63.6986 259.157 62.575C259.138 62.1969 259.153 61.8187 259.153 61.232C258.379 61.9079 257.78 62.4858 257.125 62.9888C256.041 63.8217 254.852 64.4138 253.448 64.3728C251.941 64.33 251.083 63.481 251.008 61.9365C250.883 59.3521 252.2 57.4419 253.921 55.8206C255.786 54.062 257.995 52.9009 260.529 52.4835C260.814 52.4371 261.104 52.4264 261.392 52.4122C261.83 52.3925 262.201 52.4657 262.276 53.0257C262.351 53.5875 262.092 53.8212 261.59 53.9567C260.642 54.2118 259.662 54.4223 258.775 54.8289C256.977 55.6529 255.402 56.7962 254.48 58.6725C254.351 58.9347 254.228 59.2201 254.19 59.5072C254.098 60.1921 254.053 60.9002 254.671 61.3889C255.281 61.8705 255.899 61.6012 256.465 61.2944C258.476 60.2028 259.831 58.43 261.06 56.5376C261.189 56.3396 261.283 56.1184 261.418 55.9258C261.663 55.578 261.758 54.9359 262.427 55.364C262.979 55.7171 263.651 55.9187 263.162 56.8836C262.616 57.9609 262.168 59.0988 261.795 60.251C261.665 60.6523 261.847 61.1874 261.991 61.6261C262.017 61.7064 262.606 61.7135 262.832 61.5762C263.297 61.2908 263.966 61.0696 263.77 60.276C263.603 59.6 263.969 59.3538 264.504 59.2129C265.345 58.9936 266.206 58.8348 267.021 58.5352C267.401 58.3943 267.811 58.0536 267.998 57.688C268.851 56.0364 269.601 54.3277 270.456 52.6779C270.623 52.3551 271.1 51.9912 271.425 52.0002C272.493 52.0323 272.694 52.4871 272.229 53.4716C271.698 54.5935 271.175 55.7207 270.662 56.8515C270.536 57.1333 270.466 57.4419 270.322 57.8877C271.446 57.7772 272.424 57.7326 273.377 57.5542C273.665 57.5007 273.967 57.1137 274.127 56.8051C274.832 55.4425 275.468 54.0406 276.175 52.6779C276.322 52.3943 276.64 52.0697 276.916 52.0287C277.246 51.9805 277.71 52.1232 277.932 52.3622C278.075 52.5174 277.969 53.0364 277.832 53.3218C276.26 56.5857 274.902 59.9157 274.429 63.5684C274.304 64.5351 273.505 64.1517 272.958 64.1535C272.432 64.157 271.929 63.9804 272.048 63.2741C272.186 62.4555 272.385 61.6493 272.566 60.8396C272.634 60.531 272.72 60.2278 272.877 59.6232L272.875 59.6249Z" fill="white"/>
<path d="M218.613 57.1824C219.847 55.7392 220.98 54.3218 222.209 53.0114C223.109 52.0517 224.172 51.3024 225.529 51.3246C226.712 51.3449 227.396 52.1827 227.202 53.4377C227.058 54.3679 226.823 55.2796 226.63 56.2005C226.727 56.2928 226.825 56.3851 226.923 56.4774C227.005 56.2633 227.043 56.0068 227.176 55.8425C227.989 54.8551 228.739 53.7755 229.679 52.9487C230.448 52.2713 231.405 51.7103 232.363 51.4353C234.125 50.9296 235.364 52.3747 234.869 54.2849C234.594 55.3424 234.12 56.339 233.736 57.3633C233.425 58.1882 233.069 58.9984 232.831 59.8474C232.75 60.1335 232.879 60.7111 233.066 60.8071C233.324 60.94 233.77 60.8274 234.061 60.6668C234.378 60.4915 234.579 60.0836 234.889 59.8806C235.102 59.7403 235.554 59.6425 235.654 59.7606C235.858 60.0061 236.079 60.5173 235.972 60.7333C235.222 62.2356 234.236 63.4813 232.536 63.7692C230.765 64.0682 229.61 62.7302 230.145 60.8717C230.483 59.7034 231.021 58.6053 231.446 57.4648C231.646 56.924 231.835 56.3703 231.955 55.8056C232.147 54.8957 231.645 54.2682 230.829 54.5525C230.135 54.7942 229.372 55.2409 228.943 55.848C227.966 57.2341 227.139 58.7474 226.324 60.2571C225.795 61.2371 225.356 62.2817 224.952 63.3318C224.643 64.1328 224.182 64.1014 223.584 63.8172C223.001 63.5422 222.283 63.4702 222.602 62.3887C223.198 60.3678 223.712 58.3193 224.23 56.2725C224.377 55.6893 224.578 54.9843 223.942 54.6078C223.286 54.2203 222.739 54.654 222.266 55.143C220.065 57.4149 218.476 60.1298 217.318 63.1473C217.12 63.6603 216.995 64.1974 216.322 63.8597C215.746 63.5699 214.723 63.7009 215.07 62.4718C216.078 58.9209 217.072 55.3645 218.142 51.8339C218.432 50.8761 219.294 50.7377 219.95 51.4482C220.086 51.594 220.068 52.0056 219.996 52.2529C219.63 53.5134 219.21 54.7555 218.833 56.0123C218.723 56.374 218.687 56.7616 218.61 57.1842L218.613 57.1824Z" fill="white"/>
<path d="M140.42 57.3511C141.15 56.3311 141.7 55.457 142.347 54.6882C143.093 53.8031 143.911 52.9955 144.728 52.1898C144.987 51.933 145.323 51.7519 145.648 51.6096C146.454 51.2566 147.314 51.0219 148.057 51.6743C148.822 52.3451 148.606 53.3448 148.463 54.2503C148.351 54.9691 148.153 55.6732 148.098 56.466C148.631 55.7286 149.097 54.9044 149.715 54.2743C150.632 53.3374 151.618 52.4652 152.656 51.7112C153.096 51.3915 153.748 51.3379 154.299 51.3527C155.249 51.3767 155.93 52.1288 155.867 53.1914C155.808 54.1801 155.58 55.1798 155.296 56.1241C155.01 57.0795 154.54 57.9646 154.2 58.9015C154.048 59.3173 153.945 59.7904 153.945 60.2376C153.945 60.9361 154.337 61.1911 154.868 60.8382C155.259 60.5795 155.557 60.1415 155.943 59.8699C156.142 59.7294 156.545 59.6444 156.674 59.7719C156.868 59.9641 157.07 60.4778 156.977 60.6552C156.199 62.1262 155.308 63.477 153.657 63.7819C152.19 64.0517 151.139 63.0483 151.339 61.387C151.447 60.4945 151.825 59.6407 152.105 58.7796C152.425 57.8002 152.847 56.8577 153.082 55.8561C153.329 54.8028 152.775 54.2651 151.835 54.5644C150.528 54.9802 149.785 56.1795 149.164 57.3918C148.197 59.2767 147.371 61.2558 146.489 63.198C146.038 64.1922 145.974 64.1737 144.631 63.623C143.839 63.2996 144.157 62.7397 144.289 62.2075C144.773 60.2524 145.28 58.3028 145.759 56.3458C145.911 55.7286 146.157 54.8897 145.495 54.6383C145.05 54.4702 144.234 54.7197 143.913 55.1207C142.79 56.5288 141.737 58.0256 140.8 59.6001C140.138 60.7107 139.685 61.9876 139.183 63.2128C138.984 63.6988 138.852 64.1663 138.267 63.8577C137.71 63.5639 136.781 63.6748 137.047 62.457C137.347 61.0839 137.591 59.6888 137.964 58.3416C138.556 56.1999 139.206 54.0766 139.889 51.9699C140.248 50.863 140.422 50.8556 141.346 51.2012C141.913 51.4137 141.949 51.726 141.763 52.3081C141.318 53.694 140.934 55.104 140.533 56.5066C140.479 56.6951 140.477 56.9039 140.42 57.3493V57.3511Z" fill="white"/>
<path d="M241.423 56.6305C242.18 55.679 242.897 54.6817 243.706 53.7927C244.775 52.6172 245.972 51.6732 247.592 51.7668C248.969 51.8458 249.948 52.9074 249.994 54.454C250.111 58.3754 248.454 61.2572 245.65 63.3584C244.36 64.3245 242.851 64.5632 241.326 64.06C241.06 63.9718 240.642 63.4722 240.682 63.3896C240.924 62.8661 240.908 62.0414 241.682 62.0157C241.953 62.0065 242.233 62.0286 242.497 62.0929C243.991 62.4565 245.029 61.6649 245.872 60.4196C246.698 59.2 247.289 57.8739 247.198 56.2815C247.129 55.0417 246.295 54.3346 245.352 54.9554C244.438 55.5541 243.591 56.4119 242.938 57.3505C240.68 60.5923 239.25 64.341 237.994 68.1687C237.345 70.1469 236.772 72.1618 236.234 74.1821C236.031 74.9499 235.783 75.1666 235.085 74.8764C233.809 74.3474 233.827 74.3989 234.283 72.9552C235.957 67.6489 237.6 62.3316 239.275 57.0272C239.76 55.488 239.578 54.0003 239.055 52.5566C238.665 51.4785 239.499 51.5189 239.929 51.1846C240.405 50.8136 240.687 51.034 240.964 51.5593C241.748 53.0397 241.634 54.6046 241.408 56.1933C241.392 56.3127 241.379 56.4339 241.369 56.5533C241.369 56.5754 241.397 56.5992 241.42 56.6323L241.423 56.6305Z" fill="white"/>
<path d="M315.254 56.6141C316.502 55.3669 317.652 54.0978 318.937 52.9772C319.842 52.1867 320.953 51.7154 322.238 51.7814C323.804 51.8621 324.872 52.8818 324.978 54.4334C325.17 57.2358 324.114 59.5559 322.249 61.5861C320.709 63.2643 318.904 64.3629 316.534 64.2785C316.198 64.2657 315.823 64.2748 315.54 64.1299C315.158 63.9355 314.527 63.543 314.564 63.3395C314.673 62.7452 314.942 62.0795 315.775 62.0685C315.899 62.0685 316.02 62.0685 316.144 62.0722C319.137 62.1363 321.036 60.6599 321.749 57.6998C321.991 56.6966 322.194 55.6751 321.151 54.9598C320.488 54.5049 319.452 54.8332 318.446 55.7924C316.343 57.797 314.863 60.2546 313.757 62.8681C312.188 66.5784 310.868 70.395 309.498 74.1859C309.229 74.9342 308.935 75.1946 308.18 74.8498C307.554 74.5637 306.683 74.6169 307.117 73.4321C308.937 68.4656 310.654 63.4623 312.476 58.4976C313.229 56.4435 313.572 54.4444 312.601 52.3775C312.267 51.6659 312.932 51.5632 313.334 51.3669C313.761 51.1597 314.228 50.6626 314.682 51.3559C315.4 52.4545 315.646 53.654 315.479 54.9451C315.406 55.5155 315.326 56.084 315.254 56.6141Z" fill="white"/>
<path d="M39 74.6091C38.596 75.2518 38.3187 76.0781 37.7693 76.5066C33.4617 79.8712 29.1033 83.1657 24.7518 86.4673C23.8642 87.1406 22.904 87.1892 21.9894 86.5357C21.1864 85.9632 20.7975 85.0667 21.1052 84.1162C21.3267 83.4339 21.8152 82.739 22.3647 82.3069C25.8473 79.5652 29.3789 76.8972 32.8953 74.2041C33.6713 73.61 34.4388 73.0015 35.2334 72.4344C36.033 71.8638 36.8851 71.871 37.7101 72.3642C38.4641 72.8143 38.7802 73.5578 39 74.6091Z" fill="white"/>
<path d="M1.00778 62.6037C0.935862 61.8467 1.36911 61.2412 2.02668 60.7752C6.42422 57.6616 10.8218 54.5462 15.2347 51.4545C16.3324 50.6857 17.8051 50.9279 18.5209 51.912C19.3446 53.0458 19.1031 54.3595 17.8205 55.283C15.519 56.9399 13.1901 58.5581 10.8697 60.1915C8.96891 61.5305 7.06639 62.8678 5.16216 64.2051C4.93098 64.3683 4.69809 64.5348 4.4515 64.6727C2.83495 65.5727 1.01977 64.5297 1.00778 62.6054V62.6037Z" fill="white"/>
<path d="M295.315 59.0581C297.375 58.5302 298.059 56.4704 297.307 53.2334C297.757 53.0936 298.223 52.8288 298.672 52.8521C298.984 52.8671 299.427 53.2218 299.553 53.5232C300.483 55.7694 299.913 57.8109 298.292 59.536C297.517 60.3619 296.488 61.0013 295.486 61.5891C294.951 61.9038 294.661 62.2185 294.595 62.7913C294.471 63.862 294.323 64.9293 294.184 66C292.927 65.7735 292.347 65.0825 292.456 64.0052C292.629 62.3284 292.632 62.3217 290.91 61.7639C288.949 61.1295 287.684 59.481 288.069 57.4878C288.656 54.4556 290.389 52.4059 293.385 51.3452C294.022 51.1204 294.341 50.834 294.4 50.1862C294.47 49.4136 294.609 48.646 294.752 47.8834C294.834 47.4504 294.77 46.8793 295.58 47.0225C296.75 47.2306 297.058 47.4637 296.936 48.2264C296.598 50.3361 296.244 52.4442 295.897 54.5522C295.7 55.7578 295.5 56.9617 295.317 58.1689C295.277 58.4336 295.312 58.71 295.312 59.0564L295.315 59.0581ZM293.99 52.7905C292.176 53.37 290.933 55.0834 290.926 56.8051C290.922 57.6877 291.597 58.6318 292.488 58.8799C292.662 58.9282 293.087 58.74 293.108 58.6185C293.426 56.7202 293.694 54.8136 293.99 52.7922V52.7905Z" fill="white"/>
<path d="M302.465 60.3413C302.689 61.0862 303.203 61.4313 303.763 61.3375C304.656 61.1888 305.525 60.8544 306.393 60.5607C306.681 60.4633 306.929 60.1413 307.207 60.1271C307.493 60.113 307.833 60.2935 308.061 60.497C308.163 60.589 308.137 61.0296 308.017 61.1676C306.375 63.0822 304.38 64.2695 301.851 63.9475C299.876 63.6962 298.781 61.971 299.037 59.8564C299.224 58.301 299.908 57.0005 300.887 55.868C302.381 54.141 304.081 52.7094 306.314 52.1715C306.882 52.0353 307.486 51.9822 308.068 52.0052C309.668 52.0707 310.367 53.212 309.812 54.8028C309.365 56.0821 308.445 56.981 307.398 57.6693C306.165 58.4798 304.83 59.1221 303.536 59.8299C303.196 60.0157 302.838 60.1661 302.469 60.3413H302.465ZM302.306 58.7965C303.768 58.3311 304.991 57.6375 306.079 56.7014C306.503 56.3351 306.904 55.8981 307.188 55.4097C307.342 55.1478 307.362 54.5727 307.193 54.3887C306.977 54.1534 306.481 54.0277 306.158 54.102C304.554 54.4736 302.553 56.889 302.305 58.793L302.306 58.7965Z" fill="white"/>
<path d="M134.446 55.5289C134.947 55.3563 135.387 55.1147 135.839 55.0884C136.068 55.0753 136.44 55.404 136.537 55.6604C137.311 57.7132 137.125 59.6773 135.898 61.5099C134.906 62.9924 133.583 63.9177 131.798 63.995C129.506 64.0952 128.071 62.69 128.002 60.3282C127.899 56.7123 131.131 53.1375 134.647 53.0027C134.951 52.9912 135.352 53.0093 135.539 53.1934C135.727 53.3791 135.806 53.8146 135.74 54.0941C135.7 54.2633 135.304 54.4244 135.056 54.4474C133.191 54.6184 131.691 55.3974 131.005 57.2612C130.737 57.9926 130.729 58.8736 130.791 59.6707C130.863 60.5813 131.6 61.2173 132.427 61.3324C133.269 61.4491 134.043 61.0349 134.468 60.2065C135.101 58.9738 135.134 57.6951 134.714 56.3868C134.633 56.1321 134.554 55.8773 134.446 55.5273V55.5289Z" fill="white"/>
<path d="M188.158 59.1342C186.842 60.6059 185.641 61.9252 184.469 63.2701C184.162 63.6215 183.943 63.9184 183.43 63.5429C182.919 63.1689 182.869 62.779 183.25 62.3344C184.379 61.0168 185.494 59.6863 186.679 58.4217C187.186 57.8824 187.34 57.4331 187.054 56.7189C186.727 55.9068 186.549 55.0337 186.34 54.1783C186.205 53.623 186.393 53.2956 187.022 53.1656C188.481 52.8639 188.489 52.8415 188.93 54.265C189.108 54.8412 189.285 55.4173 189.499 56.1074C190.668 55.3435 191.709 54.6582 192.758 53.9825C193.094 53.7659 193.452 53.5797 193.788 53.363C194.245 53.0694 194.544 53.1865 194.847 53.6295C195.188 54.1286 194.9 54.3468 194.548 54.5892C193.291 55.4526 192.049 56.3353 190.775 57.1715C190.267 57.5053 190.14 57.8439 190.48 58.3543C191.38 59.7088 192.274 61.0649 193.167 62.4227C193.352 62.7019 193.83 62.9073 193.397 63.3487C192.77 63.9874 192.1 64.1864 191.672 63.8109C190.459 62.742 189.412 61.5368 188.682 60.0795C188.554 59.8243 188.404 59.5788 188.158 59.1358V59.1342Z" fill="white"/>
<path d="M287.799 52C288.182 52.2499 288.77 52.4234 288.904 52.7687C289.188 53.4975 288.826 53.8671 288.004 53.9434C285.804 54.1482 283.929 55.0158 282.441 56.6295C281.671 57.4641 281.149 58.4168 281.18 59.5932C281.216 60.8999 282.294 61.7102 283.53 61.1983C284.406 60.8356 285.151 60.1745 285.993 59.7164C286.254 59.5742 286.756 59.5273 286.945 59.68C287.156 59.8501 287.296 60.3567 287.193 60.6118C286.438 62.5066 283.415 64.2141 281.346 63.9781C279.051 63.7161 277.584 61.7293 278.105 59.4926C278.679 57.0286 280.384 55.3628 282.397 53.9781C283.966 52.8988 285.733 52.2915 287.797 52H287.799Z" fill="white"/>
<path d="M181.616 52.0005C183.064 51.9882 183.162 52.2165 182.863 53.2897C181.984 56.4372 181.16 59.6006 180.348 62.7675C180.044 63.9548 179.355 64.3184 178.272 63.7089C178.11 63.6176 177.973 63.2716 178.005 63.0731C178.591 59.4899 179.383 55.9595 180.921 52.6451C181.074 52.3149 181.495 52.1094 181.615 52.0022L181.616 52.0005Z" fill="white"/>
<path d="M260.47 34.9999C259.012 35.0122 258.005 33.7979 258 32.0267C257.995 30.2597 259 29.0166 260.447 29.0002C261.868 28.9837 262.976 30.2556 263 31.9343C263.024 33.6685 261.935 34.9896 260.468 34.9999H260.47Z" fill="white"/>
<path d="M204 58.9716C204.004 57.2685 204.667 55.959 205.505 56.001C206.287 56.0403 206.984 57.4154 207 58.9532C207.016 60.5278 206.289 61.9894 205.487 61.9999C204.655 62.0104 203.997 60.6668 204.001 58.9742L204 58.9716Z" fill="white"/>
</svg>
