<svg width="1920" height="205" viewBox="0 0 1920 205" fill="none" xmlns="http://www.w3.org/2000/svg">
<path d="M1920 121.01V0H0.000244141V111.01C2.5802 113.49 4.73035 117.03 7.8103 118.25C15.9103 121.45 24.1703 124.42 33.3103 123.65C34.9003 123.52 38.2903 126.78 38.2302 128.38C38.0403 133.44 41.0403 133.6 44.5203 134.12C46.7202 134.45 49.9403 134.75 50.7703 136.18C53.4203 140.76 57.2803 141.2 61.8003 141.36C63.9902 141.44 66.0902 142.97 68.3202 143.33C71.0902 143.77 74.8903 144.89 76.5902 143.58C81.0602 140.12 85.8403 136.39 86.2803 129.73C86.3502 128.64 88.5302 126.79 89.7002 126.82C100.32 127.04 110.92 127.66 121.54 127.99C123.46 128.05 125.43 127.46 127.34 127.02C132.63 125.79 137.84 123.98 143.19 123.39C146.12 123.07 149.27 124.76 153.1 125.74C150.17 129.56 147.68 129.73 144.4 129.09C139.91 128.21 135.26 128.14 130.67 127.72L130.36 129.71C131.94 130.45 133.5 131.25 135.11 131.92C146.78 136.78 157.91 132.5 168.57 128.77C173.86 126.92 177.34 125.81 180.05 130.93C179.69 132.44 179.84 135.35 180.11 135.36C186.89 135.61 193.68 135.56 200.47 135.56C200.52 135.11 200.56 134.66 200.61 134.21C199.57 133.64 198.53 133.07 197.49 132.5C201.99 131.03 206.54 130.2 211.1 130.15C216.98 130.08 222.44 130.22 227.21 125.44C230.68 121.96 235.06 124.1 237.87 130.34C239.35 133.64 236.93 135.24 234.12 136.69C231.87 137.86 230.1 139.96 228.45 141.36C232.16 143.48 234.88 145.91 238 146.61C243.23 147.79 248.71 147.81 254.07 148.44C257.85 148.88 261.68 149.63 260.31 143.53C265.69 144.67 270.54 146.71 275.28 146.45C281.59 146.11 283.23 140.86 282.68 134.78C291.38 135.77 299.51 136.7 308.67 137.75C306.41 139.07 305.23 139.75 302.76 141.19C305.65 142.08 307.2 142.84 308.82 143C311.46 143.27 314.15 143.11 316.81 143.2C319.99 143.31 322.45 143.99 321.67 148.19C321.04 151.6 323.72 153.11 326.2 152.66C333 151.42 339.78 149.83 346.35 147.7C350.67 146.3 354.5 143.43 358.77 141.8C360.3 141.22 362.78 141.82 364.29 142.75C368.69 145.47 372.8 148.65 377.07 151.58C377.72 152.03 378.6 152.31 379.39 152.34C384.31 152.55 387.16 155.67 389.66 159.38C390.34 160.39 391.2 161.27 392.01 162.27C398.16 155.94 404.8 156.63 408.58 163.31C409.56 165.05 411.39 166.31 412.82 167.79C412.54 165.73 412.26 163.67 411.97 161.61C411.67 159.5 410.36 156.44 411.26 155.5C412.71 154 415.75 153.05 417.89 153.38C423.7 154.26 429.38 155.93 435.54 157.39V160.71C438.18 160.71 441.74 161.69 442.69 160.54C446.31 156.11 449.28 158.5 452.07 160.81C455.01 163.25 457.78 165.31 461.87 164.31C462.47 164.16 463.28 164.87 463.83 165.11C463.5 168.05 463.2 170.68 462.91 173.3C466.13 170.27 468.63 167.92 472.8 170.62C475.81 172.56 478.86 174.46 482.04 176.11C484.95 177.62 487.99 178.97 491.09 180.02C494.61 181.21 498.4 183.08 501.84 182.68C507.7 182.01 511.35 183.94 514.4 188.62C515.41 190.17 517.52 191 519.13 192.17C519.62 191.64 520.11 191.12 520.6 190.59C518.7 188 516.72 185.46 514.94 182.79C514.15 181.6 513.77 180.15 513.21 178.81C514.71 178.7 516.39 178.09 517.68 178.56C522.06 180.15 526.26 182.2 530.61 183.88C531.53 184.24 532.76 183.79 533.84 183.71C533.71 182.66 533.7 181.59 533.42 180.58C533.23 179.87 532.68 179.26 532.04 178.19C537.82 176.62 543.16 175.17 548.53 173.71C549.48 179.9 557.68 184.88 567.66 184.92C563.32 182.26 559.79 180.1 556.26 177.94C556.39 177.33 556.51 176.73 556.64 176.12C558.32 176.12 560.01 176.22 561.69 176.1C565.02 175.86 568.35 175.5 571.68 175.21C574.5 174.97 577.32 174.74 580.14 174.56C581.22 174.49 582.3 174.55 583.86 174.55C582.82 172.81 582.05 171.53 580.36 168.7C590.21 168.7 598.79 168.42 607.35 168.8C613.25 169.06 619.11 170.24 624.99 171.02L624.95 171.07C620.99 169.42 617 167.85 613.11 166.05C612.05 165.56 610.65 164.36 610.63 163.46C610.61 162.46 611.78 160.92 612.81 160.5C618.76 158.02 624.64 155.2 631.46 156C634.41 156.35 637.49 156.28 640.42 155.82C641.55 155.64 643.4 153.1 643.27 152.92C641.16 150.21 643.65 149.36 645.07 148.24C649.62 144.65 654.52 142.16 660.64 143.09C662.58 143.38 664.69 143.26 666.59 142.79C667.61 142.53 668.76 141.23 669.03 140.19C669.2 139.52 668.04 138.25 667.19 137.64C666.34 137.02 665.15 136.88 664.1 136.52C664.12 136.33 664.15 136.14 664.17 135.94H693.64C692.74 138.05 693.26 139.86 696.73 139.65C707.12 139.02 717.51 138.37 727.91 137.85C729.33 137.78 730.79 138.56 732.23 138.59C737.48 138.7 743.24 140.03 747.83 138.3C752.42 136.57 756.73 135.75 761.3 136.14C770.74 136.94 780.13 138.22 789.56 139.15C792.29 139.42 795.08 139.19 798.39 139.19C797.18 136.48 796.48 134.91 795.79 133.34C805.8 128.69 808.56 129.25 809.09 136.31C812.51 136.11 815.97 135.69 819.41 135.77C822 135.83 825.21 135.69 827.04 137.09C831.23 140.29 835.66 140.15 840.34 139.79C842 139.66 843.66 139.49 845.32 139.43C859.45 138.92 873.59 138.5 887.72 137.84C889.51 137.76 891.85 136.92 892.88 135.6C895.72 131.97 899.96 130.83 903.13 132.51C909.34 135.8 915.42 134.12 921.61 134.12C924.25 134.12 926.88 134.99 929.52 134.99C937.41 134.99 945.31 134.83 953.2 134.59C956.78 134.48 960.34 134.04 963.91 133.75C963.96 134.24 964.01 134.73 964.06 135.22C961.72 136.61 959.37 138 957.03 139.4C956.95 140 956.87 140.6 956.8 141.2C968.52 146.11 980.19 151.14 992.01 155.79C993.32 156.31 995.92 155.11 997.18 153.91C1000.82 150.45 1004.34 149.25 1009.22 151.64C1012.26 153.13 1015.98 154.2 1019.3 153.99C1029.32 153.38 1038.81 155.38 1048.18 158.43C1050.75 159.27 1054.01 159.87 1055.51 161.75C1058.59 165.59 1062.47 167.7 1067.91 166.31C1061.88 158.23 1051.74 157.67 1042.89 152.34C1045.55 151.66 1046.8 150.98 1047.96 151.11C1051.89 151.56 1055.77 152.4 1059.7 152.88C1060.86 153.02 1062.11 152.47 1063.32 152.24C1062.99 151.27 1062.65 150.31 1062.34 149.39C1066.42 146.87 1070.23 146.41 1074.24 149.91C1075.2 150.75 1077.85 150.05 1079.55 149.51C1081.4 148.93 1083.06 147.72 1085.34 146.49C1085.37 146.15 1085.47 145 1085.63 143.1C1090.1 146.86 1093.01 144.84 1094.32 142.83C1099.2 143.82 1103.01 144.45 1106.74 145.4C1110.83 146.44 1114.91 147.61 1118.89 149.03C1123.81 150.79 1128.49 153.29 1133.5 154.66C1137.22 155.68 1139.85 153.82 1140.25 149.43C1140.36 148.2 1141.85 146.05 1142.64 146.09C1147.93 146.32 1153.2 147 1158.48 147.57C1169.18 148.72 1179.88 149.94 1190.58 151.04C1195.37 151.53 1200.21 152.27 1204.98 151.98C1209.25 151.72 1213.45 150.24 1217.66 149.18C1218.13 149.06 1218.71 148.16 1218.7 147.62C1218.62 143.06 1221.8 143.05 1224.89 143.24C1233.65 143.79 1242.43 144.32 1251.16 145.18C1258.07 145.87 1264.94 146.97 1271.8 148.06C1273.31 148.3 1274.69 149.27 1276.67 150.14C1275.59 151.07 1275.06 151.42 1274.66 151.88C1273.59 153.14 1272.57 154.45 1271.54 155.74C1273.03 156.54 1274.47 157.84 1276.03 158.01C1278.46 158.29 1280.99 157.85 1283.47 157.63C1287.05 157.31 1290.64 156.51 1294.2 156.65C1300.68 156.91 1302.45 155.04 1300.59 148.76C1299.65 145.59 1299.55 143.4 1303.72 142.61C1305.45 142.28 1306.86 140.26 1308.42 139.01C1306.62 138.1 1304.86 137.08 1302.99 136.32C1302.28 136.03 1301.29 136.12 1300.52 136.35C1294.63 138.1 1289.81 136.1 1285.38 132.32C1283.91 131.07 1282.2 130.11 1280.49 128.95C1282.99 126.46 1283.31 124.36 1279.35 123.86C1275.54 123.39 1271.63 123.66 1267.82 123.19C1264.87 122.82 1262.01 121.81 1258.4 120.9C1259.72 119.41 1259.95 118.95 1260.15 118.96C1272.09 119.33 1284.04 119.84 1295.98 120.08C1299.3 120.15 1303.02 120.23 1305.89 118.88C1310.92 116.52 1314.73 116.87 1318.55 121.12C1319.48 122.15 1321.43 122.55 1322.95 122.68C1324.91 122.85 1326.93 122.27 1328.91 122.33C1351.87 123.02 1374.82 123.84 1397.78 124.45C1402.25 124.57 1407.04 124.77 1411.16 123.39C1417.11 121.39 1422.63 121.96 1428.65 122.54C1434.79 123.13 1442.75 125 1445.28 114.92C1442.96 115.04 1440.86 115.18 1438.76 115.23C1437.02 115.27 1434.82 115.86 1433.63 115.04C1429.42 112.14 1426.47 112.48 1424.68 118.07C1423.45 114.463 1426.52 111.967 1433.89 110.58C1433.99 106.45 1436.9 104.32 1438.77 106.94C1443.63 113.76 1448.98 112 1454.93 109.6C1456.28 109.05 1457.9 109.21 1459.35 108.86C1460.63 108.55 1462.23 108.35 1463.05 107.5C1469.5 100.73 1478.2 106.47 1485.01 102.08C1485.14 102.71 1485.27 103.34 1485.39 103.97C1482.48 104.57 1479.58 105.17 1475.75 105.96C1477.2 107.01 1477.8 107.82 1478.43 107.85C1485.64 108.11 1492.59 113.6 1500.1 108.91C1501.08 108.3 1502.69 108.57 1504 108.6C1514.93 108.86 1525.86 109.09 1536.79 109.51C1539.05 109.6 1541.28 110.43 1544.03 111.03C1538.69 111.03 1534.07 110.69 1529.54 111.19C1527.57 111.41 1525.79 113.35 1523.92 114.5C1525.23 115.72 1526.54 116.93 1529.1 119.3C1525.79 118.6 1523.75 118 1521.67 117.79C1519.82 117.61 1517.4 117.16 1516.16 118.08C1512.15 121.05 1504.06 121.91 1498.85 118.64C1504.11 117.15 1508.74 115.84 1513.38 114.53C1512.02 113.28 1510.88 112.94 1509.78 113.02C1503.34 113.48 1496.91 114.02 1490.48 114.58C1483.06 115.23 1475.63 115.83 1468.23 116.63C1464.77 117 1460.93 117.04 1458.08 118.66C1455.98 119.85 1455.2 123.37 1453.83 125.85C1455.67 126.6 1457.45 127.68 1459.37 128.02C1463.59 128.78 1467.87 129.21 1472.13 129.67C1473.42 129.81 1475.54 130.1 1475.94 129.47C1478.43 125.52 1481.59 127.71 1484.69 127.93C1486.74 128.07 1488.84 127.03 1490.96 126.8C1498.5 125.98 1506.03 124.89 1513.59 124.67C1519.66 124.49 1525.76 125.49 1531.85 125.86C1534.64 126.03 1537.57 125.46 1540.23 126.08C1547.01 127.67 1553.45 127.55 1560.29 125.72C1566.1 124.16 1572.15 125.49 1578.2 128.99C1571.32 132.95 1563.16 128.43 1557.6 134.58C1566.07 139.14 1575.05 132.14 1584.09 136.28C1580.18 139.61 1580.87 142.26 1584.6 144.64C1582.89 145.72 1581.43 146.28 1580.5 147.32C1579.26 148.71 1578.44 150.47 1577.45 152.07C1579.05 153 1580.55 154.4 1582.27 154.76C1585.51 155.44 1588.87 155.57 1592.19 155.86C1595.4 156.15 1598.22 156 1598.66 151.65C1598.78 150.52 1600.32 149.42 1601.39 148.52C1608.72 142.38 1617.05 143.88 1626.23 145.76C1624.66 145.91 1623.91 146.01 1623.15 146.05C1616.75 146.36 1616.12 147.32 1618.2 153.24C1619.59 157.18 1622.51 155.99 1625.26 155.56C1631.97 154.51 1638.73 152.49 1645.39 152.77C1649.93 152.96 1654.19 153.97 1658.8 152.44C1663.74 150.8 1668.93 149.56 1674.11 149.04C1683.64 148.09 1693.24 147.69 1702.81 147.25C1720.07 146.45 1737.34 145.76 1754.61 145.11C1756.12 145.05 1757.64 145.62 1759.16 145.9C1759.22 146.57 1759.28 147.24 1759.34 147.91C1751.1 152.63 1740.6 147.77 1732.33 152.98C1742.97 154.02 1753.8 151.22 1764.42 155.05C1761.51 156.32 1758.97 157.42 1756.43 158.52C1756.56 159.03 1756.69 159.54 1756.82 160.05C1759.43 160.05 1762.15 159.56 1764.62 160.15C1770.72 161.59 1771.97 157.03 1772.87 153.21C1773.32 151.32 1771.17 148.79 1770.11 146.59C1769.79 145.92 1769.19 145.39 1767.72 143.52C1771.8 144.72 1774.86 146.27 1775.73 141.44C1776.76 135.71 1776.82 136.59 1782.49 138.47C1787.67 140.19 1794.21 141.72 1798.92 139.99C1805.2 137.67 1810.59 138.51 1816.39 139.78C1817.23 139.96 1818.38 141.3 1818.36 142.08C1818.34 142.93 1817.23 144.31 1816.4 144.47C1812.8 145.16 1809.35 146.93 1805.4 144.41C1803.74 143.35 1800.51 144.64 1798.05 145.16C1797.8 145.21 1797.8 148.32 1798 148.36C1802 149.11 1806.04 149.68 1810.09 150.16C1811.99 150.39 1814.04 149.96 1815.82 150.5C1821.93 152.33 1827.86 154.12 1834.34 151.71C1840.22 149.53 1840.83 148.78 1838.89 142.65C1837.29 137.58 1838.65 135.98 1844 136.04C1846.71 136.07 1849.51 135.74 1852.13 135.04C1855.13 134.24 1857.97 132.84 1861.29 131.54C1861.51 127.88 1863.91 125.62 1869.09 125.09C1871.73 124.82 1874.68 125.23 1876.94 124.17C1880.59 122.46 1883.74 125.34 1884.05 126.69C1885.5 133.01 1889.84 130.08 1892.5 129.39C1901.77 126.98 1910.87 123.87 1920.03 121.03L1920 121.01ZM1714.4 136.13C1714.44 136.97 1714.47 137.81 1714.51 138.64C1705.94 140.03 1697.36 141.38 1688.79 142.82C1685.54 143.37 1682.23 144.91 1679.1 144.59C1672.85 143.96 1666.7 142.35 1660.51 141.15C1660.57 140.7 1660.63 140.25 1660.69 139.8C1663.65 139.55 1666.71 138.69 1669.55 139.15C1678.52 140.62 1687.41 141.24 1696.36 139.21C1699.19 138.57 1701.99 137.79 1704.84 137.31C1708.01 136.78 1711.22 136.51 1714.42 136.12L1714.4 136.13ZM1016.64 120.76C1014.55 120.2 1012.37 119.62 1010.18 119.03C1010.27 118.48 1010.35 117.93 1010.44 117.38C1016.12 117.69 1021.79 118 1027.61 118.32C1025.56 125.18 1020.94 128.46 1012.01 128.81C1013.71 125.85 1015.04 123.55 1016.64 120.76ZM1005.16 135.78C1004.21 137.17 1002.75 139.28 1001.49 141.12C996.79 138.22 992.41 135.52 988.2 132.91C989.73 131.66 991.06 129.94 992.78 129.34C994.46 128.76 996.95 128.65 998.36 129.52C1000.81 131.02 1002.7 133.42 1005.17 135.78H1005.16ZM882.18 134.06C868.74 133.34 854.72 139.09 841.24 130.77C847.41 130.77 852.94 130.77 858.48 130.79C858.76 130.79 859.01 131.2 859.31 131.3C862.14 132.23 864.94 133.67 867.84 133.94C872.58 134.38 877.39 134.06 882.18 134.06ZM1058.17 117.25C1057.74 116.91 1057.31 116.58 1056.88 116.24C1058.61 114.57 1060.13 111.79 1062.09 111.42C1069.38 110.07 1072.04 111.47 1073.89 115.64C1068.79 116.16 1063.48 116.7 1058.17 117.25ZM290.71 128.43C294.99 127.45 298.51 126.53 302.09 125.96C302.65 125.87 304.17 127.57 304.05 128.23C303.52 131.27 301.53 132.27 298.58 131.23C296.26 130.41 293.94 129.58 290.71 128.43ZM1472.38 120.86C1472.44 121.46 1472.49 122.06 1472.55 122.66C1468.54 123.12 1464.54 123.57 1460.53 124.03L1460.3 121.53C1464.33 121.31 1468.35 121.09 1472.38 120.87V120.86ZM1638.38 143.94C1641.17 140.77 1646.64 140.15 1652.16 142.37C1647.46 142.91 1642.99 143.42 1638.38 143.94ZM1073.29 120.9C1073.41 121.49 1073.53 122.08 1073.66 122.67C1071.28 122.96 1068.9 123.25 1066.52 123.54C1066.46 122.9 1066.39 122.26 1066.33 121.62C1068.65 121.38 1070.97 121.14 1073.29 120.9Z" fill="#67ADDE"/>
<path d="M1369.2 151.49C1369.43 152.14 1369.45 152.62 1369.66 152.73C1377.63 157.02 1385.27 162.29 1393.71 165.28C1403.69 168.82 1410.35 162.42 1409.61 151.7C1409.52 150.34 1410 148.95 1410.27 147.18C1407.64 147.34 1405.09 147.5 1402.55 147.66C1402.14 143.267 1399.68 141.717 1395.18 143.01C1394.4 143.23 1393.54 143.25 1392.72 143.24C1381.53 143.09 1378 144.31 1369.19 151.5L1369.2 151.49Z" fill="#67ADDE"/>
<path d="M1335.35 151.38C1344.8 149.46 1353.35 147.68 1361.91 146C1364.49 145.49 1367.18 145.46 1369.72 144.81C1370.98 144.49 1372.71 143.4 1372.92 142.38C1373.12 141.42 1371.87 139.7 1370.8 139.02C1365.78 135.79 1360.75 134.02 1354.45 136.5C1348.87 138.69 1342.69 139.35 1336.8 140.75C1335.69 141.01 1334.13 141.23 1333.66 142.01C1332.45 143.98 1331.02 146.29 1331.11 148.4C1331.16 149.55 1334.12 150.57 1335.35 151.38Z" fill="#67ADDE"/>
<path d="M1479.59 149.06C1484.68 149.06 1490.29 145.84 1490.45 143.07C1490.62 140.18 1485.95 137.11 1481.33 137.07C1476.78 137.03 1472.08 140.24 1472.62 143.33C1473.31 147.23 1475.78 149.4 1479.59 149.06Z" fill="#67ADDE"/>
<path d="M1258.64 160.48C1260.6 159.76 1263.03 159.57 1264.04 158.28C1264.96 157.1 1264.67 153.17 1264.35 153.1C1259.81 152.11 1255.17 151.41 1250.53 151.1C1249.64 151.04 1247.9 152.96 1247.85 154.03C1247.79 155.14 1249.07 156.82 1250.19 157.37C1252.81 158.67 1255.7 159.44 1258.65 160.48H1258.64Z" fill="#67ADDE"/>
<path d="M417.99 188.79C419.75 193.85 421.03 197.97 422.68 201.94C423.03 202.77 424.7 203.06 425.76 203.59C426.05 202.58 426.73 201.5 426.56 200.58C425.78 196.51 424.94 192.44 423.71 188.49C423.32 187.23 421.64 186.36 420.56 185.32C419.58 186.64 418.6 187.97 418 188.78L417.99 188.79Z" fill="#67ADDE"/>
<path d="M539.24 204.49C539.65 198.73 530.66 189.73 523.49 188.33C527.73 195.09 533.2 199.42 539.24 204.49Z" fill="#67ADDE"/>
<path d="M1413.69 146.62H1418.91C1418.6 144.82 1418.37 143.44 1418.07 141.71C1419.85 141.36 1421.65 141.44 1422.91 140.65C1424.2 139.84 1424.97 138.19 1425.96 136.91C1424.36 136.44 1422.29 135.11 1421.24 135.68C1418.45 137.16 1414.42 137.97 1415.03 142.73C1415.16 143.71 1414.35 144.82 1413.7 146.61L1413.69 146.62Z" fill="#67ADDE"/>
<path d="M1629.63 160.35C1624.59 161.14 1619.54 161.87 1614.53 162.79C1614.05 162.88 1613.32 164.5 1613.48 164.65C1614.22 165.4 1615.35 166.53 1616.12 166.39C1620.81 165.52 1625.44 164.34 1630.1 163.26C1629.95 162.29 1629.79 161.33 1629.64 160.36L1629.63 160.35Z" fill="#67ADDE"/>
<path d="M1404.24 131.74C1410.74 130.9 1416.04 130.21 1421.65 129.48C1417.25 124.33 1409.2 125.04 1404.24 131.74Z" fill="#67ADDE"/>
<path d="M1106.5 158.81C1104.8 160.55 1103.73 161.64 1102.66 162.73C1103.98 163.73 1105.28 165.45 1106.64 165.51C1108.01 165.57 1109.45 163.96 1110.86 163.09C1109.63 161.88 1108.4 160.68 1106.5 158.81Z" fill="#67ADDE"/>
<path d="M625 170.99C630.67 173.92 636.5 175.93 642.88 174.68C642.96 174.17 643.04 173.65 643.11 173.14C637.06 172.44 631.01 171.74 624.96 171.05L625 171V170.99Z" fill="#67ADDE"/>
<path d="M1128.72 159.53C1126.2 157.71 1123.67 155.9 1121.15 154.08C1120.71 154.65 1120.27 155.22 1119.83 155.8C1122.23 157.83 1124.62 159.86 1127.02 161.89C1127.59 161.1 1128.16 160.32 1128.73 159.53H1128.72Z" fill="#67ADDE"/>
<path d="M1433.52 151.01C1434.28 149.12 1435.36 147.69 1435.19 146.43C1435.06 145.43 1433.06 143.72 1432.48 143.93C1431.17 144.42 1430.22 145.89 1429.12 146.96C1429.97 147.74 1430.82 148.52 1433.52 151.01Z" fill="#67ADDE"/>
<path d="M1287.94 128.58C1291.17 130.02 1294.38 132.42 1297.72 130.46C1297.74 129.83 1297.75 129.2 1297.77 128.58H1287.94Z" fill="#67ADDE"/>
<path d="M1125.79 165.87C1126.95 166.51 1128.09 167.62 1129.26 167.65C1130.42 167.68 1131.6 166.62 1132.77 166.03C1131.73 165.16 1130.8 163.83 1129.62 163.55C1128.52 163.29 1127.16 164.14 1125.91 164.5C1125.87 164.96 1125.83 165.42 1125.78 165.88L1125.79 165.87Z" fill="#67ADDE"/>
<path d="M1335.56 130.85C1336.83 131.23 1338.14 132.01 1339.35 131.87C1340.32 131.76 1341.16 130.53 1342.06 129.79C1340.87 129.18 1339.71 128.17 1338.47 128.07C1337.5 127.99 1336.44 129.02 1335.42 129.55C1335.47 129.98 1335.52 130.41 1335.57 130.85H1335.56Z" fill="#67ADDE"/>
<path d="M494.51 188.43C496.29 189.68 497.47 190.61 498.78 191.3C498.92 191.37 500.34 189.65 500.22 189.5C499.39 188.42 498.39 187.4 497.24 186.69C496.94 186.51 495.91 187.51 494.52 188.43H494.51Z" fill="#67ADDE"/>
<path d="M1342.48 133.42L1336.43 134.64C1336.59 135.41 1336.75 136.18 1336.91 136.95C1338.92 136.51 1340.93 136.08 1342.95 135.64C1342.79 134.9 1342.64 134.16 1342.48 133.42Z" fill="#67ADDE"/>
<path d="M738.88 142.58H748.13C748.13 142.21 748.13 141.85 748.14 141.48H738.89C738.89 141.85 738.89 142.21 738.88 142.58Z" fill="#67ADDE"/>
</svg>
