<svg width="90" height="90" viewBox="0 0 90 90" fill="none" xmlns="http://www.w3.org/2000/svg">
<rect width="90" height="90" rx="45" fill="#67ADDE"/>
<path d="M73 50.6194C73 52.1112 72.5721 53.3544 71.7163 54.349C70.8606 55.3435 69.6731 55.8408 68.1538 55.8408C67.3654 55.8408 66.6202 55.6796 65.9183 55.3573C65.2163 55.035 64.649 54.6851 64.2163 54.3075C63.7837 53.93 63.2404 53.58 62.5865 53.2577C61.9327 52.9354 61.25 52.7743 60.5385 52.7743C58.4231 52.7743 57.3654 53.9161 57.3654 56.1999C57.3654 56.9182 57.5192 57.9772 57.8269 59.3769C58.1346 60.7767 58.2788 61.8357 58.2596 62.554V62.6921C57.8365 62.6921 57.5192 62.7013 57.3077 62.7197C56.6538 62.775 55.7163 62.8809 54.4952 63.0374C53.274 63.194 52.1635 63.3183 51.1635 63.4104C50.1635 63.5025 49.2212 63.5485 48.3365 63.5485C47.1635 63.5485 46.1731 63.3045 45.3654 62.8164C44.5577 62.3284 44.1538 61.5594 44.1538 60.5096C44.1538 59.8282 44.3221 59.1744 44.6587 58.5482C44.9952 57.922 45.3606 57.4017 45.7548 56.9873C46.149 56.5729 46.5144 56.0296 46.851 55.3573C47.1875 54.6851 47.3558 53.9714 47.3558 53.2163C47.3558 51.7613 46.8365 50.624 45.7981 49.8044C44.7596 48.9848 43.4615 48.5751 41.9038 48.5751C40.2885 48.5751 38.9135 48.9941 37.7788 49.8321C36.6442 50.67 36.0769 51.8442 36.0769 53.3544C36.0769 54.1464 36.2212 54.9107 36.5096 55.6474C36.7981 56.3841 37.1202 56.9781 37.476 57.4293C37.8317 57.8805 38.1538 58.3686 38.4423 58.8935C38.7308 59.4184 38.875 59.8834 38.875 60.2886C38.875 61.1174 38.4327 61.937 37.5481 62.7474C36.8365 63.392 35.7115 63.7143 34.1731 63.7143C32.3462 63.7143 29.9904 63.4933 27.1058 63.0512C26.9327 63.0144 26.6683 62.9776 26.3125 62.9407C25.9567 62.9039 25.6923 62.8671 25.5192 62.8302L25.1442 62.775C25.125 62.775 25.0962 62.7658 25.0577 62.7474C25.0192 62.7474 25 62.7381 25 62.7197V34.4304C25.0385 34.4488 25.2067 34.481 25.5048 34.5271C25.8029 34.5731 26.1298 34.6192 26.4856 34.6652C26.8413 34.7112 27.0481 34.7435 27.1058 34.7619C29.9904 35.2039 32.3462 35.4249 34.1731 35.4249C35.7115 35.4249 36.8365 35.1026 37.5481 34.458C38.4327 33.6476 38.875 32.8281 38.875 31.9993C38.875 31.5941 38.7308 31.129 38.4423 30.6041C38.1538 30.0792 37.8317 29.5912 37.476 29.1399C37.1202 28.6887 36.7981 28.0947 36.5096 27.358C36.2212 26.6213 36.0769 25.857 36.0769 25.0651C36.0769 23.5548 36.6442 22.3807 37.7788 21.5427C38.9135 20.7047 40.2981 20.2857 41.9327 20.2857C43.4712 20.2857 44.7596 20.6955 45.7981 21.5151C46.8365 22.3347 47.3558 23.4719 47.3558 24.9269C47.3558 25.682 47.1875 26.3957 46.851 27.068C46.5144 27.7402 46.149 28.2835 45.7548 28.6979C45.3606 29.1123 44.9952 29.6326 44.6587 30.2588C44.3221 30.885 44.1538 31.5388 44.1538 32.2203C44.1538 33.2701 44.5577 34.039 45.3654 34.5271C46.1731 35.0151 47.1635 35.2592 48.3365 35.2592C49.5673 35.2592 51.2981 35.121 53.5288 34.8448C55.7596 34.5685 57.3269 34.412 58.2308 34.3751V34.4304C58.2115 34.4672 58.1779 34.6284 58.1298 34.9138C58.0817 35.1993 58.0337 35.5124 57.9856 35.8531C57.9375 36.1939 57.9038 36.3918 57.8846 36.4471C57.4231 39.2097 57.1923 41.4659 57.1923 43.2155C57.1923 44.689 57.5288 45.7664 58.2019 46.4478C59.0481 47.295 59.9038 47.7186 60.7692 47.7186C61.1923 47.7186 61.6779 47.5805 62.226 47.3042C62.774 47.028 63.2837 46.7195 63.7548 46.3788C64.226 46.038 64.8462 45.7295 65.6154 45.4533C66.3846 45.177 67.1827 45.0389 68.0096 45.0389C69.5865 45.0389 70.8125 45.5822 71.6875 46.6688C72.5625 47.7555 73 49.0723 73 50.6194Z" fill="#fff"/>
</svg>
