<svg width="28" height="23" viewBox="0 0 28 23" fill="none" xmlns="http://www.w3.org/2000/svg">
<path d="M4.66667 0C3.42899 0 2.242 0.484641 1.36683 1.34731C0.491665 2.20998 0 3.38 0 4.6V5.0623L14 12.4936L28 5.0646V4.6C28 3.38 27.5083 2.20998 26.6332 1.34731C25.758 0.484641 24.571 0 23.3333 0H4.66667ZM28 7.6751L14.553 14.812C14.383 14.9022 14.193 14.9494 14 14.9494C13.807 14.9494 13.617 14.9022 13.447 14.812L0 7.6751V18.4C0 19.62 0.491665 20.79 1.36683 21.6527C2.242 22.5154 3.42899 23 4.66667 23H23.3333C24.571 23 25.758 22.5154 26.6332 21.6527C27.5083 20.79 28 19.62 28 18.4V7.6751Z" fill="#5A5A5A"/>
</svg>
