<svg width="27" height="36" viewBox="0 0 27 36" fill="none" xmlns="http://www.w3.org/2000/svg">
<path d="M13.5 36C13.5 36 27 23.2065 27 13.5C27 9.91958 25.5777 6.4858 23.0459 3.95406C20.5142 1.42232 17.0804 0 13.5 0C9.91958 0 6.4858 1.42232 3.95406 3.95406C1.42232 6.4858 5.33525e-08 9.91958 0 13.5C0 23.2065 13.5 36 13.5 36ZM13.5 20.25C11.7098 20.25 9.9929 19.5388 8.72703 18.273C7.46116 17.0071 6.75 15.2902 6.75 13.5C6.75 11.7098 7.46116 9.9929 8.72703 8.72703C9.9929 7.46116 11.7098 6.75 13.5 6.75C15.2902 6.75 17.0071 7.46116 18.273 8.72703C19.5388 9.9929 20.25 11.7098 20.25 13.5C20.25 15.2902 19.5388 17.0071 18.273 18.273C17.0071 19.5388 15.2902 20.25 13.5 20.25Z" fill="#5A5A5A"/>
</svg>
