<svg width="28" height="29" viewBox="0 0 28 29" fill="none" xmlns="http://www.w3.org/2000/svg">
<path d="M18.6679 20.6101L21.0789 18.1119C21.4037 17.7796 21.8145 17.5521 22.2616 17.4571C22.7087 17.3621 23.1729 17.4036 23.5976 17.5766L26.5361 18.7922C26.9654 18.9728 27.3335 19.2809 27.594 19.6779C27.8545 20.0748 27.9958 20.5428 28 21.0228V26.5991C27.9975 26.9256 27.9313 27.2482 27.8053 27.5475C27.6792 27.8468 27.4961 28.1166 27.2668 28.3406C27.0375 28.5646 26.7668 28.7383 26.4711 28.8511C26.1753 28.9638 25.8606 29.0134 25.5459 28.9969C4.95488 27.6697 0.800086 9.60246 0.0143345 2.68783C-0.0221406 2.34827 0.0111858 2.00456 0.112121 1.67931C0.213056 1.35405 0.379313 1.05463 0.599953 0.800733C0.820593 0.546836 1.09062 0.344221 1.39226 0.206217C1.6939 0.0682136 2.02033 -0.00205115 2.35006 4.55797e-05H7.54894C8.01286 0.00146842 8.46577 0.146666 8.8494 0.416964C9.23304 0.687261 9.52986 1.0703 9.70168 1.5168L10.8749 4.56147C11.0474 4.99985 11.0914 5.48116 11.0015 5.9453C10.9115 6.40944 10.6915 6.83582 10.369 7.17119L7.95796 9.66938C7.95796 9.66938 9.34648 19.4056 18.6679 20.6101Z" fill="#5A5A5A"/>
</svg>
