<svg width="30" height="30" viewBox="0 0 30 30" fill="none" xmlns="http://www.w3.org/2000/svg">
<path d="M27.4424 0.264849C27.4424 0.264849 30.2176 -1.03372 29.9863 2.11995C29.9092 3.41854 29.2154 7.96354 28.6758 12.8796L26.8257 27.4422C26.8257 27.4422 26.6715 29.5755 25.2839 29.9466C23.8962 30.3175 21.8149 28.648 21.4294 28.277C21.121 27.9987 15.6477 23.8247 13.7204 21.7841C13.1808 21.2276 12.5641 20.1145 13.7975 18.8159L21.8919 9.54042C22.817 8.42734 23.7421 5.8302 19.8876 8.98388L9.09508 17.7956C9.09508 17.7956 7.86165 18.7232 5.549 17.8884L0.538158 16.0333C0.538158 16.0333 -1.31199 14.642 1.84868 13.2506C9.55765 8.89105 19.0397 4.4388 27.4424 0.264849Z" fill="black"/>
</svg>
