<svg width="47" height="27" viewBox="0 0 47 27" fill="none" xmlns="http://www.w3.org/2000/svg">
<path d="M41.835 18.9264C41.835 18.9264 45.6349 22.6976 46.5749 24.4426C46.5932 24.4678 46.6075 24.4957 46.6172 24.5253C47.0003 25.1699 47.0943 25.6753 46.9063 26.0484C46.589 26.6647 45.5151 26.974 45.1508 27H38.4345C37.9669 27 36.9939 26.8772 35.8095 26.0555C34.9048 25.4202 34.0047 24.3741 33.1329 23.3517C31.831 21.8333 30.7053 20.5157 29.5656 20.5157C29.4216 20.5153 29.2787 20.5393 29.1426 20.5865C28.2801 20.8604 27.185 22.0954 27.185 25.3848C27.185 26.4144 26.3766 27 25.8103 27H22.7341C21.686 27 16.2293 26.6316 11.3907 21.5051C5.46162 15.2285 0.136512 2.63766 0.0848117 2.52668C-0.246539 1.712 0.449062 1.26806 1.20106 1.26806H7.98317C8.89262 1.26806 9.18872 1.82062 9.39552 2.31651C9.63522 2.8856 10.5235 5.16197 11.9805 7.71935C14.3399 11.8801 15.7899 13.5732 16.9484 13.5732C17.1661 13.5738 17.3801 13.5168 17.5688 13.4079C19.0822 12.572 18.8002 7.14081 18.7297 6.02152C18.7297 5.80427 18.7274 3.59638 17.9519 2.52904C17.3973 1.76395 16.4526 1.46642 15.8815 1.35779C16.0343 1.13582 16.3586 0.795784 16.7745 0.595067C17.8109 0.0755638 19.6838 0 21.5427 0H22.5743C24.5906 0.0283365 25.1123 0.158212 25.8455 0.344761C27.3213 0.698968 27.3495 1.66005 27.2203 4.93292C27.1827 5.86803 27.1427 6.9212 27.1427 8.16092C27.1427 8.4254 27.131 8.72057 27.131 9.02046C27.0863 10.6994 27.0276 12.5909 28.2073 13.3678C28.3603 13.4635 28.537 13.5143 28.7172 13.5142C29.1261 13.5142 30.3505 13.5142 33.671 7.78783C35.128 5.25879 36.2561 2.27637 36.3336 2.05204C36.3994 1.92688 36.5968 1.57504 36.8365 1.43336C37.007 1.3422 37.198 1.29666 37.3911 1.30112H45.3694C46.2389 1.30112 46.8287 1.43336 46.9439 1.76395C47.1366 2.29998 46.9063 3.93642 43.2638 8.88587C42.6504 9.70999 42.1123 10.4231 41.6399 11.0465C38.3382 15.4009 38.3382 15.6205 41.835 18.9264Z" fill="black"/>
</svg>
