<svg width="90" height="90" viewBox="0 0 90 90" fill="none" xmlns="http://www.w3.org/2000/svg">
<rect width="90" height="90" rx="45" fill="#67ADDE"/>
<path d="M65.2961 30.4455L54.4813 40.5644V69.1188C54.4813 70.1815 54.0739 71.0941 53.2591 71.8564C52.4443 72.6188 51.469 73 50.3332 73C49.1974 73 48.2221 72.6188 47.4072 71.8564C46.5924 71.0941 46.185 70.1815 46.185 69.1188V55.8119H43.8147V69.1188C43.8147 70.1815 43.4072 71.0941 42.5924 71.8564C41.7776 72.6188 40.8023 73 39.6665 73C38.5307 73 37.5554 72.6188 36.7406 71.8564C35.9258 71.0941 35.5184 70.1815 35.5184 69.1188V40.5644L24.7035 30.4455C24.0122 29.7987 23.6665 29.0132 23.6665 28.0891C23.6665 27.165 24.0122 26.3795 24.7035 25.7327C25.4196 25.0858 26.2653 24.7624 27.2406 24.7624C28.2159 24.7624 29.0492 25.0858 29.7406 25.7327L38.185 33.6337H51.8147L60.2591 25.7327C60.9505 25.0858 61.79 24.7624 62.7776 24.7624C63.7653 24.7624 64.6048 25.0858 65.2961 25.7327C65.9875 26.4026 66.3332 27.1939 66.3332 28.1064C66.3332 29.019 65.9875 29.7987 65.2961 30.4455ZM53.2961 24.7624C53.2961 26.9109 52.4875 28.7417 50.8702 30.255C49.2529 31.7682 47.2961 32.5248 44.9998 32.5248C42.7035 32.5248 40.7468 31.7682 39.1295 30.255C37.5122 28.7417 36.7035 26.9109 36.7035 24.7624C36.7035 22.6139 37.5122 20.783 39.1295 19.2698C40.7468 17.7566 42.7035 17 44.9998 17C47.2961 17 49.2529 17.7566 50.8702 19.2698C52.4875 20.783 53.2961 22.6139 53.2961 24.7624Z" fill="#fff"/>
</svg>
